<?xml version="1.0" encoding="utf-8"?>
<!-- Generator: Adobe Illustrator 24.0.0, SVG Export Plug-In . SVG Version: 6.00 Build 0)  -->
<svg version="1.1" id="ad1dd13e-2ec4-4c24-88e7-d38d592282c0"
	 xmlns="http://www.w3.org/2000/svg" xmlns:xlink="http://www.w3.org/1999/xlink" x="0px" y="0px" viewBox="0 0 578 675"
	 style="enable-background:new 0 0 578 675;" xml:space="preserve">
<style type="text/css">
	.st0{fill:#F2F2F2;}
	.st1{fill:#FFFFFF;}
	.st2{fill:#B5B1FF;}
</style>
<path class="st0" d="M383,0H13C5.82,0.01,0.01,5.82,0,13v500c0.01,7.18,5.82,12.99,13,13h370c7.18-0.01,12.99-5.82,13-13V13
	C395.99,5.82,390.18,0.01,383,0z"/>
<path class="st1" d="M24.43,16c-5.01,0.08-9,4.21-8.93,9.21v475.58c-0.07,5.01,3.92,9.13,8.93,9.21h347.14
	c5.01-0.08,9-4.21,8.93-9.21V25.21c0.07-5.01-3.92-9.13-8.93-9.21H24.43z"/>
<path class="st0" d="M42.5,38c-3.31,0-6,3.04-6,6.77v65.46c0,3.73,2.69,6.77,6,6.77h311c3.31,0,6-3.04,6-6.77V44.77
	c0-3.73-2.69-6.77-6-6.77H42.5z"/>
<path class="st0" d="M42.5,148.75c-3.36,0.05-6.04,2.81-6,6.17v139.91c-0.04,3.36,2.64,6.12,6,6.17h311c3.36-0.05,6.04-2.81,6-6.17
	V154.92c0.04-3.36-2.64-6.12-6-6.17H42.5z"/>
<rect x="75" y="47.25" class="st1" width="246" height="14"/>
<rect x="75.5" y="76.75" class="st1" width="246" height="6.5"/>
<rect x="75.5" y="88.25" class="st1" width="246" height="6.5"/>
<rect x="75.5" y="99.75" class="st1" width="246" height="6.5"/>
<path class="st1" d="M221.16,301.25h113.21c2.01,0,3.64-1.63,3.64-3.64c0-0.97-0.38-1.89-1.07-2.58l-72.46-72.46
	c-1.42-1.42-3.73-1.42-5.15,0l-18.02,18.02c-2.98,2.99-7.82,2.99-10.81,0c0,0,0,0,0,0l-56.44-56.44c-1.42-1.42-3.73-1.42-5.15,0
	L58.55,294.53c-1.42,1.42-1.42,3.73,0,5.15c0.68,0.68,1.61,1.07,2.58,1.07h160.18L221.16,301.25z"/>
<circle class="st1" cx="86.5" cy="181.75" r="14"/>
<path class="st0" d="M42.5,333.75c-3.36,0.05-6.04,2.81-6,6.17v139.91c-0.04,3.36,2.64,6.12,6,6.17h311c3.36-0.05,6.04-2.81,6-6.17
	V339.92c0.04-3.36-2.64-6.12-6-6.17H42.5z"/>
<path class="st1" d="M221.16,486.25h113.21c2.01,0,3.64-1.63,3.64-3.65c0-0.97-0.38-1.89-1.07-2.58l-72.46-72.46
	c-1.42-1.42-3.73-1.42-5.15,0l-18.02,18.02c-2.98,2.99-7.82,2.99-10.81,0c0,0,0,0,0,0l-56.43-56.43c-1.42-1.42-3.73-1.42-5.15,0
	L58.55,479.53c-1.42,1.42-1.42,3.73,0,5.15c0.68,0.68,1.61,1.07,2.58,1.07h160.18L221.16,486.25z"/>
<circle class="st1" cx="86.5" cy="366.75" r="14"/>
<path class="st0" d="M143,115c-4.97,0.01-8.99,4.03-9,9v500c0.01,4.97,4.03,8.99,9,9h370c4.97-0.01,8.99-4.03,9-9V124
	c-0.01-4.97-4.03-8.99-9-9H143z"/>
<path class="st1" d="M153.93,129c-5.01,0.08-9,4.21-8.93,9.21v475.58c-0.07,5.01,3.92,9.13,8.93,9.21h347.14
	c5.01-0.08,9-4.21,8.93-9.21V138.21c0.07-5.01-3.92-9.13-8.93-9.21H153.93z"/>
<path class="st0" d="M208.25,198.18c-2.21,0-4,1.79-4,4v18.36c0,2.21,1.79,4,4,4h236c2.21,0,4-1.79,4-4v-18.36c0-2.21-1.79-4-4-4
	H208.25z"/>
<path class="st0" d="M206.75,258.94c-0.55,0-1,0.45-1,1v7.17c0,0.55,0.45,1,1,1h240c0.55,0,1-0.45,1-1v-7.17c0-0.55-0.45-1-1-1
	H206.75z"/>
<path class="st0" d="M206.75,282.23c-0.55,0-1,0.45-1,1v7.17c0,0.55,0.45,1,1,1h240c0.55,0,1-0.45,1-1v-7.17c0-0.55-0.45-1-1-1
	H206.75z"/>
<path class="st0" d="M206.75,305.53c-0.55,0-1,0.45-1,1v7.17c0,0.55,0.45,1,1,1h240c0.55,0,1-0.45,1-1v-7.17c0-0.55-0.45-1-1-1
	H206.75z"/>
<path class="st0" d="M206.25,352.06c-0.55,0-1,0.45-1,1v7.17c0,0.55,0.45,1,1,1h240c0.55,0,1-0.45,1-1v-7.17c0-0.55-0.45-1-1-1
	H206.25z"/>
<path class="st0" d="M206.25,375.36c-0.55,0-1,0.45-1,1v7.17c0,0.55,0.45,1,1,1h240c0.55,0,1-0.45,1-1v-7.17c0-0.55-0.45-1-1-1
	H206.25z"/>
<path class="st0" d="M206.25,398.65c-0.55,0-1,0.45-1,1v7.17c0,0.55,0.45,1,1,1h240c0.55,0,1-0.45,1-1v-7.17c0-0.55-0.45-1-1-1
	H206.25z"/>
<path class="st0" d="M206.25,422.06c-0.55,0-1,0.45-1,1v7.17c0,0.55,0.45,1,1,1h240c0.55,0,1-0.45,1-1v-7.17c0-0.55-0.45-1-1-1
	H206.25z"/>
<path class="st0" d="M206.25,445.36c-0.55,0-1,0.45-1,1v7.17c0,0.55,0.45,1,1,1h240c0.55,0,1-0.45,1-1v-7.17c0-0.55-0.45-1-1-1
	H206.25z"/>
<path class="st0" d="M206.25,468.65c-0.55,0-1,0.45-1,1v7.17c0,0.55,0.45,1,1,1h240c0.55,0,1-0.45,1-1v-7.17c0-0.55-0.45-1-1-1
	H206.25z"/>
<path class="st0" d="M206.25,492.06c-0.55,0-1,0.45-1,1v7.17c0,0.55,0.45,1,1,1h240c0.55,0,1-0.45,1-1v-7.17c0-0.55-0.45-1-1-1
	H206.25z"/>
<path class="st0" d="M206.25,515.36c-0.55,0-1,0.45-1,1v7.17c0,0.55,0.45,1,1,1h240c0.55,0,1-0.45,1-1v-7.17c0-0.55-0.45-1-1-1
	H206.25z"/>
<path class="st0" d="M206.25,538.65c-0.55,0-1,0.45-1,1v7.17c0,0.55,0.45,1,1,1h240c0.55,0,1-0.45,1-1v-7.17c0-0.55-0.45-1-1-1
	H206.25z"/>
<circle class="st2" cx="505" cy="602" r="73"/>
<polygon class="st1" points="505,656.03 541.5,592.81 468.5,592.81 "/>
<rect x="490.78" y="557.79" class="st1" width="28.44" height="51.19"/>
</svg>
