<?xml version="1.0" encoding="utf-8"?>
<!-- Generator: Adobe Illustrator 24.0.0, SVG Export Plug-In . SVG Version: 6.00 Build 0)  -->
<svg version="1.1" id="a767eac7-073f-42f5-be07-7b01228cc98c"
	 xmlns="http://www.w3.org/2000/svg" xmlns:xlink="http://www.w3.org/1999/xlink" x="0px" y="0px" viewBox="0 0 889.08 703.36"
	 style="enable-background:new 0 0 889.08 703.36;" xml:space="preserve">
<style type="text/css">
	.st0{fill:#E6E6E6;}
	.st1{fill:#3F3D56;}
	.st2{fill:#6C63FF;}
	.st3{fill:#FF6584;}
</style>
<g>
	<circle class="st0" cx="465.32" cy="297.12" r="225.33"/>
	<rect x="49.99" y="171.67" class="st1" width="372.7" height="2.44"/>
	<rect x="49.99" y="238.66" class="st1" width="732" height="2.44"/>
	<path class="st1" d="M556.67,478.6c-124.92,0-226.54-101.63-226.54-226.54S431.75,25.51,556.67,25.51s226.54,101.63,226.54,226.55
		S681.58,478.6,556.67,478.6z M556.67,27.95c-123.57,0-224.11,100.53-224.11,224.11s100.53,224.1,224.11,224.1
		s224.11-100.53,224.11-224.1S680.24,27.95,556.67,27.95L556.67,27.95z"/>
	<circle class="st2" cx="535.77" cy="29.74" r="29.74"/>
	<circle class="st3" cx="330.97" cy="236.11" r="19.25"/>
	<circle class="st2" cx="790.42" cy="236.43" r="43.95"/>
</g>
<ellipse class="st0" cx="444.54" cy="642.15" rx="444.54" ry="12.43"/>
<polygon class="st1" points="481.05,507.43 481.05,492.77 407.74,492.77 407.74,493.68 407.74,507.43 407.74,625.65 407.74,640.31 
	422.4,640.31 481.05,640.31 481.05,625.65 422.4,625.65 422.4,507.43 "/>
<path class="st2" d="M516.79,492.77v147.54h73.31V492.77H516.79z M575.44,625.65h-43.99V507.43h43.99V625.65z"/>
<polygon class="st2" points="313.34,625.65 313.34,493.68 298.68,493.68 298.68,625.65 298.68,640.31 313.34,640.31 371.99,640.31 
	371.99,625.65 "/>
<polygon class="st1" points="265.69,507.43 265.69,492.77 192.38,492.77 192.38,493.68 192.38,507.43 192.38,558.75 192.38,573.41 
	192.38,625.65 192.38,640.31 207.04,640.31 265.69,640.31 265.69,625.65 207.04,625.65 207.04,573.41 265.69,573.41 265.69,558.75 
	207.04,558.75 207.04,507.43 "/>
<polygon class="st2" points="839.37,507.43 839.37,492.77 766.06,492.77 766.06,493.68 766.06,507.43 766.06,558.75 766.06,573.41 
	766.06,625.65 766.06,640.31 780.72,640.31 839.37,640.31 839.37,625.65 780.72,625.65 780.72,573.41 839.37,573.41 839.37,558.75 
	780.72,558.75 780.72,507.43 "/>
<polygon class="st1" points="142.89,493.68 142.89,614.87 104.23,576.21 104.14,576.3 104.06,576.22 64.54,615.74 64.54,493.23 
	49.87,493.23 49.87,639.85 64.54,639.85 64.54,636.48 104.15,596.86 142.89,635.61 142.89,640.31 157.55,640.31 157.55,493.68 "/>
<polygon class="st1" points="717.49,493.68 717.49,497.06 677.88,536.67 639.13,497.93 639.13,493.23 624.47,493.23 624.47,639.85 
	639.13,639.85 639.13,518.67 677.79,557.33 677.88,557.24 677.96,557.32 717.49,517.8 717.49,640.31 732.15,640.31 732.15,493.68 
	"/>
<circle class="st2" cx="113.08" cy="494.36" r="9"/>
<circle class="st2" cx="291.08" cy="694.36" r="9"/>
<circle class="st2" cx="517.08" cy="421.36" r="9"/>
<circle class="st2" cx="782.08" cy="686.36" r="9"/>
<circle class="st2" cx="791.08" cy="450.36" r="9"/>
<circle class="st2" cx="677.08" cy="612.36" r="9"/>
</svg>
